<svg xmlns="http://www.w3.org/2000/svg" width="1921.263" height="922.321" viewBox="0 0 1921.263 922.321">
  <g id="background-no-gap" transform="translate(0.4 -160.028)">
    <line id="Line_2" data-name="Line 2" transform="translate(603.5 163.5)" fill="none" stroke="#707070" stroke-width="1"/>
    <g id="Group_1" data-name="Group 1">
      <path id="Path_235" data-name="Path 235" d="M7565-1391.648v-93.323l145.1,20.616v169.227l94.752,12.86v-82.47l67.426,11.3v-68.032l100.895,13.958V-565h47.2v-826.648l116.685,21.858v119.906l105.369,16.008v127.523l72.324,13.427v-190.461h30.119v-32.928l81.846,17.076v123.358l82.256,77.993L8500.076-565H7565" transform="translate(-7565 1645)" fill="#eafcdf"/>
      <path id="Path_238" data-name="Path 238" d="M7565-1257.453l78.407,13.439V-1301.3l104.523,16.5v123.853l83.268,12.716V-890.4l31.1,7.367-6.93-301.154h26.377V-1234.8l55.211,8.5,3.737,58.7,105.842,19.37v220.059l139.031,21.508v-254.283l99.33,12.716v29.762l68.627,10.309v155.01l107.322,15.971v419.7H7565Z" transform="translate(-7565 1599.179)" fill="#d2fdb8"/>
      <path id="Path_240" data-name="Path 240" d="M7565-1050.733l59.947,10.01v-56.338l38.429,8.807v-63.718l96.436,19.878v203.056l46.276,7.51v78.055l135.731,21.151v-215.932l123.828,19.56v39.673l66.71-21.711,89.24,10.01,41.107,61.685v75.673l121,17.891V-696.5l61.348,7.752v-104.73l26.141-24.877v-45.443L8525-850.544v320.805L7565-531.3Z" transform="translate(-7565 1612.087)" fill="#bcf497"/>
      <path id="Path_244" data-name="Path 244" d="M5626.41-1184.885l-30.986,15.392v41.4l-8.1-2.3-51.9,26.134v23.641l-7.831-2.2,59.729,8.831v-56.4l39.082,10.407Z" transform="translate(-5528 1645)" fill="#adeb83"/>
      <path id="Path_246" data-name="Path 246" d="M5904.974-1070.145l-113.651,51.032-.077,143.21v2.893L5904.974-856.2Z" transform="translate(-5527.896 1645)" fill="#c4f2a6"/>
      <path id="Path_247" data-name="Path 247" d="M6433.963-896.789l-16.677,8.782v52.595l-9.542,8.967L6346.2-794.611l.07,66.662,61.472,6.325V-826.445l26.22-25.068Z" transform="translate(-5527.674 1645)" fill="#adeb83"/>
      <path id="Path_248" data-name="Path 248" d="M5606.646-1347.12l-42.865,21.537v28.26l42.865,6.695Z" transform="translate(-5527.984 1645)" fill="#c5f5a5"/>
      <path id="Path_249" data-name="Path 249" d="M5818.27-1229.8l-52.61,25.812v5.739l28.408,3.732V-1018.3l28.5-11.871Z" transform="translate(-5527.904 1645)" fill="#c5f5a5"/>
      <path id="Path_250" data-name="Path 250" d="M5844.5-1280.469l-23.167,11.825v38.9H5844.5Z" transform="translate(-5527.881 1645)" fill="#c5f5a5"/>
      <path id="Path_251" data-name="Path 251" d="M6148.524-1207.1l-83.57,50.791,1.013,131.78,29.148-9.727,52.914,6.015Z" transform="translate(-5527.785 1645)" fill="#c5f5a5"/>
      <path id="Path_252" data-name="Path 252" d="M5904.978-1070.145l-122.153,54.166.042,141.59L5905-855.462Z" transform="translate(-5527.898 1645)" fill="#adeb83"/>
      <path id="Path_253" data-name="Path 253" d="M5835.545-1421.219l-56.213,28.094v31.187l56.213,9.229v-68.51" transform="translate(-5527.898 1645)" fill="#dbfac7"/>
      <path id="Path_254" data-name="Path 254" d="M5768.1-1364.789l-25.123,12.947v66.368l25.123,3.461Z" transform="translate(-5527.914 1645)" fill="#dbfac7"/>
      <path id="Path_255" data-name="Path 255" d="M5983.294-1391.363l-48.035,23.833.172,160.147,48.429,9.027Z" transform="translate(-5527.836 1645)" fill="#dbfac7"/>
      <path id="Path_256" data-name="Path 256" d="M6277.588-1283.516l-44.3,22.338.056,65.311,13.723,2.023v29.99l30.526,4.37Z" transform="translate(-5527.716 1645)" fill="#dbfac7"/>
      <path id="Path_267" data-name="Path 267" d="M6307.856-1316.025l-17.257,8.24v25.061h17.257Z" transform="translate(-5527.691 1645)" fill="#dbfac7"/>
    </g>
    <g id="Group_2" data-name="Group 2" transform="translate(0.324)">
      <path id="Path_234" data-name="Path 234" d="M8525-974.4" transform="translate(-7565 1645)" fill="none" stroke="#707070" stroke-width="1"/>
      <path id="Path_241" data-name="Path 241" d="M8503.546-1391.648,8499.436-565l4.11-919.69-149.115,20.334v169.227l-94.686,12.86v-82.47l-67.382,11.3v-68.032l-100.824,13.958V-565h-47.167v-826.648l-116.6,21.858v119.906l-105.3,16.008v127.523l-72.274,13.427v-190.461h-30.1v-32.928l-81.791,17.076v123.358l-75.922,75.136L7565-565h934.436" transform="translate(-6583.007 1645)" fill="#dffbfd"/>
      <path id="Path_242" data-name="Path 242" d="M8460.237-1257.453l-78.354,13.439V-1301.3l-104.452,16.5v123.853l-85.739,11.9-.891,259.091-27.661,6.921,6.925-301.154h-26.358V-1234.8l-55.174,8.5-3.733,58.7-105.771,19.37v220.059l-138.938,21.508v-254.283l-105.366,14.15v28.677l-62.474,9.96v155.01L7565-937.175v419.7h895.236Z" transform="translate(-6540.024 1597.179)" fill="#c3f4fc"/>
      <path id="Path_243" data-name="Path 243" d="M8503.729-1050.733l-59.9,10.01v-56.338l-38.4,8.807v-63.718l-96.37,19.878v203.056l-46.244,7.51v78.055l-135.638,21.151v-215.932l-123.743,19.56v39.673l-66.665-21.711-89.177,10.01-41.08,61.685v75.673l-120.916,17.891V-696.5l-61.3-16.856v-80.122L7598.16-818.35v-45.443l-54.482,14.466v318.182h39.854l920.2-.15Z" transform="translate(-6584.001 1611.087)" fill="#a1effc"/>
      <path id="Path_257" data-name="Path 257" d="M6346.2-897.39l16.665,9.383v52.595l9.534,8.967,61.493,31.834-.069,66.662-61.423,6.325V-826.445l-26.2-25.068Z" transform="translate(-5332.02 1645)" fill="#95e0ed"/>
      <path id="Path_258" data-name="Path 258" d="M5782.825-1070.145l122.055,54.586v142.441L5782.825-854.54Z" transform="translate(-4240.16 1646)" fill="#95e0ed"/>
      <path id="Path_259" data-name="Path 259" d="M6064.955-1207.1l83.5,50.791v132.526l-27.35-8.848-56.153,5.547Z" transform="translate(-4767.094 1645)" fill="#acedf7"/>
      <path id="Path_260" data-name="Path 260" d="M5821.333-1280.469l23.148,11.825v38.9h-23.148Z" transform="translate(-4217.18 1643)" fill="#acedf7"/>
      <path id="Path_261" data-name="Path 261" d="M5769.958-1229.8l52.569,25.812v5.739l-28.386,3.732V-1018.3l-28.48-11.871Z" transform="translate(-4142.185 1643)" fill="#acedf7"/>
      <path id="Path_262" data-name="Path 262" d="M5563.781-1347.786l42.831,22.2v28.26l-42.831,6.695Z" transform="translate(-3722.243 1644)" fill="#acedf7"/>
      <path id="Path_263" data-name="Path 263" d="M5743.879-1364.411l24.108,12.622.368,66.677-24.518,3.531Z" transform="translate(-4067.642 1644.645)" fill="#cdf7fa"/>
      <path id="Path_264" data-name="Path 264" d="M5779.332-1421.219l56.167,28.094v31.187l-56.167,8.915v-68.2" transform="translate(-4171.18 1645)" fill="#cdf7fa"/>
      <path id="Path_265" data-name="Path 265" d="M5935.259-1391.363l48,23.833v159.518l-48,9.049Z" transform="translate(-4474.139 1645)" fill="#cdf7fa"/>
      <path id="Path_266" data-name="Path 266" d="M6233.747-1283.48l44.067,22.3v65.254l-14.605,1.727v30.152l-29.926,4.029Z" transform="translate(-5068.057 1645)" fill="#cdf7fa"/>
      <path id="Path_268" data-name="Path 268" d="M6290.6-1316.025l17.243,8.24v25.061H6290.6Z" transform="translate(-5154.05 1645)" fill="#cdf7fa"/>
      <path id="Path_269" data-name="Path 269" d="M5527.6-1184.885l30.961,15.392v41.4l8.089-2.3,51.856,26.134v23.641l7.825-2.2L5566.65-1074v-56.4l-39.05,10.407Z" transform="translate(-3707.236 1644)" fill="#95e0ed"/>
    </g>
    <line id="Line_121" data-name="Line 121" transform="translate(603.5 171.5)" fill="none" stroke="#707070" stroke-width="1"/>
  </g>
</svg>
