<svg xmlns="http://www.w3.org/2000/svg" width="1920.212" height="922.321" viewBox="0 0 1920.212 922.321">
  <g id="background-small-gap" transform="translate(0 -160.028)" opacity="0.69">
    <line id="Line_2" data-name="Line 2" transform="translate(603.5 163.5)" fill="none" stroke="#707070" stroke-width="1"/>
    <g id="Group_3" data-name="Group 3" transform="translate(945.453 160.028)">
      <path id="Path_235" data-name="Path 235" d="M8364.364-1391.648v-93.323l-122.875,20.616v169.227l-80.237,12.86v-82.47l-57.1,11.3v-68.032l-85.438,13.958v200l-44.434,9.3L8018.717-565H7978.75v-826.648l-98.81,21.858v119.906l-89.227,16.008v127.523l-61.245,13.427v-190.461h-25.505v-32.928l-69.308,17.076v123.358L7565-1097.888,7572.534-565h791.83" transform="translate(-7390.018 1484.972)" fill="#dffbfd"/>
      <path id="Path_238" data-name="Path 238" d="M8505.755-1257.453,8440-1244.014V-1301.3l-87.654,16.5v123.853l-69.829,12.716V-890.4l-26.08,7.367,5.811-301.154h-22.119V-1234.8l-46.3,8.5-3.135,58.7-88.759,19.37v139.435l-27.16,4.823V-927.2l-89.434,20.542v-254.283l-83.3,12.716v29.762l-57.551,10.309v155.01l-90,15.971v87.729H7691.4v-89.965l-99.045,20.4v89.869L7565-814.9v62.388h52.93l50.765,52.118L7691.4-782.1l63.09,264.626h751.263Z" transform="translate(-7531.408 1439.151)" fill="#c3f4fc"/>
      <path id="Path_240" data-name="Path 240" d="M8539.477-1050.539l-42.611,10.029v-56.446l-27.316,8.824v-63.84L8401-1132.057v203.445l-32.894,7.525v78.2l-96.479,21.192v-216.346l-88.018,19.6v39.749l-47.418-21.753-63.432,10.029-29.22,61.8v75.818l-86.007,17.925v139.245l-43.607,7.767V-792.786l-18.581-24.924v-45.53l-102.762,6.948v63.507H7702.39v104.931h-50.827v-76.5h-65.4v54.522l-27.609,14.432v42.65l27.609,2.661v50.164l-21.367,20.288.208,51.1h292.1l682.378-1.56Z" transform="translate(-7565 1450.867)" fill="#a1effc"/>
      <path id="Path_244" data-name="Path 244" d="M5527.6-1184.885l22.025,15.421v41.48l5.754-2.309,36.889,26.184v23.686l5.566-2.209-42.456,8.848v-56.51l-27.779,10.427Z" transform="translate(-4623.076 1483.779)" fill="#95e0ed"/>
      <path id="Path_247" data-name="Path 247" d="M6346.2-896.789l11.854,8.8v52.7l6.782,8.984,43.745,31.9-.05,66.79-43.7,6.337V-826.31L6346.2-851.425Z" transform="translate(-6015.926 1484.332)" fill="#95e0ed"/>
      <path id="Path_271" data-name="Path 271" d="M6346.5-706.309l.067-76.55,50.786,52.369V-706.3Z" transform="translate(-6259.991 1469.332)" fill="#95e0ed"/>
      <path id="Path_270" data-name="Path 270" d="M6396.641-821.1v-3.017l-27.562,8.053Z" transform="translate(-5825.947 1251.332)" fill="#adeb83"/>
      <path id="Path_248" data-name="Path 248" d="M5563.782-1347.12l35.947,21.537v28.26l-35.947,6.695Z" transform="translate(-4655.402 1484.972)" fill="#acedf7"/>
      <path id="Path_249" data-name="Path 249" d="M5769.268-1229.8l44.12,25.812v5.739l-23.823,3.732V-1018.3l-23.9-11.871Z" transform="translate(-5038.424 1484.972)" fill="#acedf7"/>
      <path id="Path_250" data-name="Path 250" d="M5821.333-1280.469l19.428,11.825v38.9h-19.428Z" transform="translate(-5112.506 1484.972)" fill="#cdf7fa"/>
      <path id="Path_251" data-name="Path 251" d="M6064.955-1207.1l70.082,50.791.12,129.779-15.032,2-30.643,62.125v5.012l-24.525,5.154Z" transform="translate(-5611.165 1484.972)" fill="#acedf7"/>
      <path id="Path_272" data-name="Path 272" d="M6086.332-1004.142l63.113,31.741v58.15h-63.092Z" transform="translate(-5926.377 1503.972)" fill="#acedf7"/>
      <path id="Path_252" data-name="Path 252" d="M5782.841-1070.145l86.828,54.27-.03,141.862-86.813,18.964Z" transform="translate(-5076.398 1483.999)" fill="#95e0ed"/>
      <path id="Path_253" data-name="Path 253" d="M5779.332-1421.219l47.6,28.094v31.187l-47.6,9.229v-68.51" transform="translate(-5065.502 1484.972)" fill="#cdf7fa"/>
      <path id="Path_254" data-name="Path 254" d="M5742.976-1364.789l21.274,12.947v66.368l-21.274,3.461Z" transform="translate(-4972.019 1484.972)" fill="#cdf7fa"/>
      <path id="Path_255" data-name="Path 255" d="M5935.739-1391.363l40.676,23.833-.146,160.147-41.01,9.027Z" transform="translate(-5347.079 1484.972)" fill="#cdf7fa"/>
      <path id="Path_256" data-name="Path 256" d="M6205.234-1283.516l37.518,22.338-.009,66.2-6.307.905v29.934l-31.123,5.473Z" transform="translate(-5865.885 1484.972)" fill="#cdf7fa"/>
      <path id="Path_267" data-name="Path 267" d="M6290.6-1316.025l14.613,8.24v25.061H6290.6Z" transform="translate(-5976.904 1484.972)" fill="#cdf7fa"/>
    </g>
    <g id="Group_1" data-name="Group 1" transform="translate(0.4)">
      <path id="Path_235-2" data-name="Path 235" d="M7565-1391.648v-93.323l121.014,20.616v169.227l79.022,12.86v-82.47l56.232,11.3v-68.032l84.145,13.958v200l43.761,9.3L7905.414-565h39.362v-826.648l97.313,21.858v119.906l87.876,16.008v127.523l60.317,13.427v-190.461h25.12v-32.928l68.258,17.076v123.358l68.6,77.993L8344.84-565H7565" transform="translate(-7564.994 1645)" fill="#eafcdf"/>
      <path id="Path_238-2" data-name="Path 238" d="M7565-1257.453l64.756,13.439V-1301.3l86.327,16.5v123.853l68.771,12.716V-890.4l25.685,7.367-5.723-301.154H7826.6V-1234.8l45.6,8.5,3.087,58.7,87.415,19.37v139.435l26.749,4.823V-927.2l88.08,20.542v-254.283l82.036,12.716v29.762l56.679,10.309v155.01l88.639,15.971v87.729h62.136v-89.965l97.546,20.4v89.869l26.94,14.245v62.388H8439.38l-50,52.118L8367.022-782.1l-62.136,264.626H7565Z" transform="translate(-7564.994 1599.179)" fill="#d2fdb8"/>
      <path id="Path_240-2" data-name="Path 240" d="M7565-1050.539l41.966,10.029v-56.446l26.9,8.824v-63.84l67.51,19.916v203.445l32.4,7.525v78.2l95.019,21.192v-216.346l86.685,19.6v39.749l46.7-21.753,62.472,10.029,28.777,61.8v75.818l84.7,17.925v139.245l42.946,7.767V-792.786l18.3-24.924v-45.53l101.206,5.776v64.678h88.828v104.931h50.058v-76.5h64.413v111.425l27.387,2.839v121.549H8237.044L7565-530.106Z" transform="translate(-7565.119 1610.895)" fill="#bcf497"/>
      <path id="Path_273" data-name="Path 273" d="M8270.993-590.866l44.012,41.6v48.791h39.753v52.009H8239.014V-528.6h31.979Z" transform="translate(-7273.119 1529.895)" fill="#bcf497"/>
      <path id="Path_244-2" data-name="Path 244" d="M5596.771-1184.885l-21.692,15.421v41.48l-5.667-2.309-36.331,26.184v23.686l-5.482-2.209,41.813,8.848v-56.51l27.359,10.427Z" transform="translate(-5528 1643.807)" fill="#adeb83"/>
      <path id="Path_247-2" data-name="Path 247" d="M6407.639-896.789l-11.675,8.8v52.7l-6.68,8.984-43.083,31.9.049,66.79,43.034,6.337V-826.31l18.355-25.116Z" transform="translate(-5773.315 1644.36)" fill="#adeb83"/>
      <path id="Path_271-2" data-name="Path 271" d="M6396.582-706.309l-.067-76.55L6346.5-730.49V-706.3Z" transform="translate(-5522.18 1629.36)" fill="#adeb83"/>
      <path id="Path_274" data-name="Path 274" d="M6373.007-720.792v-62.067l-31.775,31.075v30.992Z" transform="translate(-5375.18 1722.344)" fill="#adeb83"/>
      <path id="Path_270-2" data-name="Path 270" d="M6369.078-821.1v-3.017l27.145,8.053Z" transform="translate(-5971.531 1411.36)" fill="#adeb83"/>
      <path id="Path_248-2" data-name="Path 248" d="M5599.184-1347.12l-35.4,21.537v28.26l35.4,6.695Z" transform="translate(-5534.209 1645)" fill="#c5f5a5"/>
      <path id="Path_249-2" data-name="Path 249" d="M5809.111-1229.8l-43.451,25.812v5.739l23.462,3.732V-1018.3l23.542-11.871Z" transform="translate(-5569.289 1645)" fill="#c5f5a5"/>
      <path id="Path_250-2" data-name="Path 250" d="M5840.467-1280.469l-19.134,11.825v38.9h19.134Z" transform="translate(-5578.961 1645)" fill="#c5f5a5"/>
      <path id="Path_251-2" data-name="Path 251" d="M6133.975-1207.1l-69.021,50.791.836,131.78v59.646l68.183,12.645Z" transform="translate(-5621.294 1645)" fill="#c5f5a5"/>
      <path id="Path_272-2" data-name="Path 272" d="M6148.489-1004.142,6086.333-972.4v58.15h62.136Z" transform="translate(-5346.422 1664)" fill="#c5f5a5"/>
      <path id="Path_252-2" data-name="Path 252" d="M5868.338-1070.145l-85.513,54.27.03,141.862,85.5,18.964Z" transform="translate(-5604.485 1644.027)" fill="#adeb83"/>
      <path id="Path_253-2" data-name="Path 253" d="M5826.212-1421.219l-46.881,28.094v31.187l46.881,9.229v-68.51" transform="translate(-5569.633 1645)" fill="#dbfac7"/>
      <path id="Path_254-2" data-name="Path 254" d="M5763.927-1364.789l-20.952,12.947v66.368l20.952,3.461Z" transform="translate(-5563.61 1645)" fill="#dbfac7"/>
      <path id="Path_255-2" data-name="Path 255" d="M5975.32-1391.363l-40.06,23.833.143,160.147,40.389,9.027Z" transform="translate(-5595.467 1645)" fill="#dbfac7"/>
      <path id="Path_256-2" data-name="Path 256" d="M6265.576-1283.516l-36.95,22.338.047,65.311h-23.439v89.881l60.342,13.836Z" transform="translate(-5640.187 1645)" fill="#dbfac7"/>
      <path id="Path_267-2" data-name="Path 267" d="M6304.992-1316.025l-14.392,8.24v25.061h14.392Z" transform="translate(-5654.338 1645)" fill="#dbfac7"/>
    </g>
    <line id="Line_121" data-name="Line 121" transform="translate(603.5 171.5)" fill="none" stroke="#707070" stroke-width="1"/>
  </g>
</svg>
