<svg xmlns="http://www.w3.org/2000/svg" width="1921.263" height="922.321" viewBox="0 0 1921.263 922.321">
  <g id="background-gap" transform="translate(0.4 -160.028)">
    <line id="Line_2" data-name="Line 2" transform="translate(603.5 163.5)" fill="none" stroke="#707070" stroke-width="1"/>
    <g id="Group_1" data-name="Group 1">
      <path id="Path_235" data-name="Path 235" d="M7565-1391.648v-93.323l123.891,20.616v169.227l80.9,12.86v-82.47l57.569,11.3v-68.032l86.145,13.958V-565h40.3v-826.648l99.626,21.858v119.906l89.965,16.008v127.523l61.75,13.427v-190.461h25.716v-32.928l69.882,17.076v123.358l70.23,77.993L8363.378-565H7565" transform="translate(-7565.059 1645)" fill="#eafcdf"/>
      <path id="Path_238" data-name="Path 238" d="M7565-1257.453l66.945,13.439V-1301.3l89.243,16.5v123.853l71.1,12.716V-890.4l26.553,7.367-5.917-301.154h22.521V-1234.8l47.139,8.5,3.191,58.7,90.369,19.37v220.059l118.707,21.508v-254.283l84.809,12.716v29.762l58.593,10.309v155.01l91.634,15.971v419.7H7565Z" transform="translate(-7565.059 1599.179)" fill="#d2fdb8"/>
      <path id="Path_240" data-name="Path 240" d="M7565-1050.733l51.183,10.01v-56.338l32.811,8.807v-63.718l82.338,19.878v203.056l39.511,7.51v78.055l115.889,21.151v-215.932l105.726,19.56v39.673l56.958-21.711,76.193,10.01,35.1,61.685v75.673l103.31,17.891V-696.5l52.38,7.752v-104.73l22.319-24.877v-45.443l45.942,13.25v320.805L7565-531.3Z" transform="translate(-7565.058 1612.087)" fill="#bcf497"/>
      <path id="Path_244" data-name="Path 244" d="M5611.965-1184.885l-26.456,15.392v41.4l-6.912-2.3-44.311,26.134v23.641l-6.687-2.2,51,8.831v-56.4l33.368,10.407Z" transform="translate(-5528 1645)" fill="#adeb83"/>
      <path id="Path_246" data-name="Path 246" d="M5888.348-1070.145l-97.036,51.032-.065,143.21v2.893l97.1,16.812Z" transform="translate(-5566.452 1645)" fill="#c4f2a6"/>
      <path id="Path_247" data-name="Path 247" d="M6421.133-896.789l-14.239,8.782v52.595l-8.147,8.967L6346.2-794.611l.06,66.662,52.485,6.325V-826.445l22.387-25.068Z" transform="translate(-5647.392 1645)" fill="#adeb83"/>
      <path id="Path_248" data-name="Path 248" d="M5600.38-1347.12l-36.6,21.537v28.26l36.6,6.695Z" transform="translate(-5533.275 1645)" fill="#c5f5a5"/>
      <path id="Path_249" data-name="Path 249" d="M5810.579-1229.8l-44.919,25.812v5.739l24.255,3.732V-1018.3l24.337-11.871Z" transform="translate(-5562.72 1645)" fill="#c5f5a5"/>
      <path id="Path_250" data-name="Path 250" d="M5841.113-1280.469l-19.78,11.825v38.9h19.78Z" transform="translate(-5570.839 1645)" fill="#c5f5a5"/>
      <path id="Path_251" data-name="Path 251" d="M6136.307-1207.1l-71.353,50.791.865,131.78,24.887-9.727,45.178,6.015Z" transform="translate(-5606.371 1645)" fill="#c5f5a5"/>
      <path id="Path_252" data-name="Path 252" d="M5887.12-1070.145l-104.3,54.166.036,141.59,104.278,18.928Z" transform="translate(-5565.224 1645)" fill="#adeb83"/>
      <path id="Path_253" data-name="Path 253" d="M5827.327-1421.219l-48,28.094v31.187l48,9.229v-68.51" transform="translate(-5564.714 1645)" fill="#dbfac7"/>
      <path id="Path_254" data-name="Path 254" d="M5764.425-1364.789l-21.45,12.947v66.368l21.45,3.461Z" transform="translate(-5559.411 1645)" fill="#dbfac7"/>
      <path id="Path_255" data-name="Path 255" d="M5976.272-1391.363l-41.013,23.833.147,160.147,41.349,9.027Z" transform="translate(-5587.455 1645)" fill="#dbfac7"/>
      <path id="Path_256" data-name="Path 256" d="M6271.111-1283.516l-37.828,22.338.048,65.311,11.717,2.023v29.99l26.063,4.37Z" transform="translate(-5630.92 1645)" fill="#dbfac7"/>
      <path id="Path_267" data-name="Path 267" d="M6305.333-1316.025l-14.734,8.24v25.061h14.734Z" transform="translate(-5639.278 1645)" fill="#dbfac7"/>
    </g>
    <g id="Group_2" data-name="Group 2" transform="translate(141.187)">
      <path id="Path_234" data-name="Path 234" d="M8525-974.4" transform="translate(-7565.047 1645)" fill="none" stroke="#707070" stroke-width="1"/>
      <path id="Path_241" data-name="Path 241" d="M8365.571-1391.648,8362.063-565l3.508-919.69-127.255,20.334v169.227l-80.805,12.86v-82.47l-57.5,11.3v-68.032l-86.043,13.958V-565h-40.252v-826.648l-99.51,21.858v119.906l-89.86,16.008v127.523l-61.679,13.427v-190.461h-25.686v-32.928l-69.8,17.076v123.358l-64.792,75.136L7564.616-565h797.447" transform="translate(-6585.895 1645)" fill="#dffbfd"/>
      <path id="Path_242" data-name="Path 242" d="M8329-1257.453l-66.867,13.439V-1301.3l-89.139,16.5v123.853l-73.169,11.9-.76,259.091-23.606,6.921,5.91-301.154h-22.495V-1234.8l-47.085,8.5-3.187,58.7-90.264,19.37v220.059l-118.57,21.508v-254.283l-89.919,14.15v28.677l-53.315,9.96v155.01L7565-937.175v419.7H8329Z" transform="translate(-6549.597 1597.179)" fill="#c3f4fc"/>
      <path id="Path_243" data-name="Path 243" d="M8362.984-1050.733l-51.122,10.01v-56.338l-32.773,8.807v-63.718l-82.242,19.878v203.056l-39.464,7.51v78.055l-115.753,21.151v-215.932l-105.6,19.56v39.673l-56.891-21.711-76.1,10.01-35.058,61.685v75.673l-103.189,17.891V-696.5l-52.318-16.856v-80.122l-22.294-24.877v-45.443l-46.5,14.466v318.182h34.012l785.3-.15Z" transform="translate(-6584 1611.087)" fill="#a1effc"/>
      <path id="Path_257" data-name="Path 257" d="M6346.2-897.39l14.221,9.383v52.595l8.137,8.967,52.478,31.834-.059,66.662-52.418,6.325V-826.445L6346.2-851.512Z" transform="translate(-5340.01 1645)" fill="#95e0ed"/>
      <path id="Path_258" data-name="Path 258" d="M5782.825-1070.145l104.162,54.586v142.441L5782.825-854.54Z" transform="translate(-4325.625 1646)" fill="#95e0ed"/>
      <path id="Path_259" data-name="Path 259" d="M6064.954-1207.1l71.262,50.791v132.526l-23.341-8.848-47.921,5.547Z" transform="translate(-4816.671 1645)" fill="#acedf7"/>
      <path id="Path_260" data-name="Path 260" d="M5821.333-1280.469l19.755,11.825v38.9h-19.755Z" transform="translate(-4311.661 1643)" fill="#acedf7"/>
      <path id="Path_261" data-name="Path 261" d="M5769.328-1229.8l44.862,25.812v5.739l-24.225,3.732V-1018.3l-24.305-11.871Z" transform="translate(-4239.498 1643)" fill="#acedf7"/>
      <path id="Path_262" data-name="Path 262" d="M5563.781-1347.786l36.552,22.2v28.26l-36.552,6.695Z" transform="translate(-3851.524 1644)" fill="#acedf7"/>
      <path id="Path_263" data-name="Path 263" d="M5743.873-1364.411l20.574,12.622.314,66.677-20.923,3.531Z" transform="translate(-4172.684 1644.645)" fill="#cdf7fa"/>
      <path id="Path_264" data-name="Path 264" d="M5779.331-1421.219l47.934,28.094v31.187l-47.934,8.915v-68.2" transform="translate(-4266.246 1645)" fill="#cdf7fa"/>
      <path id="Path_265" data-name="Path 265" d="M5935.259-1391.363l40.96,23.833v159.518l-40.96,9.049Z" transform="translate(-4547.651 1645)" fill="#cdf7fa"/>
      <path id="Path_266" data-name="Path 266" d="M6233.679-1283.48l37.607,22.3v65.254l-12.464,1.727v30.152l-25.539,4.029Z" transform="translate(-5098.19 1645)" fill="#cdf7fa"/>
      <path id="Path_268" data-name="Path 268" d="M6290.6-1316.025l14.715,8.24v25.061H6290.6Z" transform="translate(-5179.979 1645)" fill="#cdf7fa"/>
      <path id="Path_269" data-name="Path 269" d="M5527.6-1184.885l26.422,15.392v41.4l6.9-2.3,44.254,26.134v23.641l6.678-2.2L5560.925-1074v-56.4L5527.6-1119.99Z" transform="translate(-3833.413 1644)" fill="#95e0ed"/>
    </g>
    <line id="Line_121" data-name="Line 121" transform="translate(603.5 171.5)" fill="none" stroke="#707070" stroke-width="1"/>
  </g>
</svg>
