<svg xmlns="http://www.w3.org/2000/svg" width="1929.948" height="897.259" viewBox="0 0 1929.948 897.259">
  <g id="intro-bg" transform="translate(5 -185.612)">
    <path id="Path_1" data-name="Path 1" d="M-61.708-370.565C-13.78-424.18,6.866-425.493,6.866-425.493h80l61.717,54.928L198.867-493.6v-76.9H235.44v76.9l64-76.9H470.88l41.136,76.9v714.05h61.735L560.027-493.6H674.319V-276.09l66.289-175.768H845.756v-63.716h45.716v-41.745h134.873v186.754l98.281,94.475,34.287,516.319h80V-482.626l57.146-87.875h139.444l27.421,35.154v-68.11h36.564v142.812l70.861-96.672h96l59.432,105.461v-54.928h41.145V-570.5H1805.8l57.146,63.716V240.229H-61.708Z" transform="translate(62 789.07)" fill="#f5ffef"/>
    <path id="Path_2" data-name="Path 2" d="M-57-26.785,24.2-258.951h171.21l25.123-90.172c0-2.278,60.61-68.2,60.61-68.2V-247.3H404.136L537.169-26.785H637.746V-316.067s78.194-37.995,110.2-57.356,33.213-20.09,33.213-20.09H914.331v138.947H964.61V-448.18h80.013v193.614l114.291,52.39,9.143,478.341,34.287-13.667-48.9-690.732,124.941-64.93h161.683v238.6h54.86v-95.668h48.011v95.668l98.282-164h123.443l102.844,164V276.164H-57Z" transform="translate(52 803.706)" fill="#e6ffd6"/>
    <path id="Path_3" data-name="Path 3" d="M-57,38.85h45.571V-155.436H50.279V38.85l62.548-253.718h61.337l132.127,59.431L320.016,38.85H384.01L422.878-93.719H694.9L861.756,38.85V-126.727h36.564V-64h41.154l9.811-62.724h129.106v405.6h24.089V-32.01h161.581l32.01-123.426v-82.3h41.145v82.3H1531.5L1636.661-32.01V278.871h50.288V-214.868h38.85V-93.719h50.288v-73.146h89.138V278.871H-57Z" transform="translate(57 804)" fill="#d5fdbb"/>
  </g>
</svg>
