<svg xmlns="http://www.w3.org/2000/svg" width="44.049" height="36.193" viewBox="0 0 44.049 36.193">
  <g id="like-button-liked" transform="translate(-71 -469.968)">
    <path id="Path_118" data-name="Path 118" d="M7282.855,7047.9s9.315-3.429,10.872-6.71.574-3.766,1.948-5.146,2.517-1.607,3.539,0,1.146,2.758.567,6.083c-.139.8-1.534,6.246-1.534,6.246s2.594,15.553,3.013,19.573c.05.474-8.075,1.987-12.812,2.163s-4.437-2.272-5.084-2.163" transform="translate(-7197 -6564.456)" fill="#b6de9c" stroke="#383838" stroke-width="1"/>
    <path id="Path_119" data-name="Path 119" d="M7295.291,7050.558h11.8a8.105,8.105,0,0,1,1.052,3.111,2.743,2.743,0,0,1-1.052,2.055h-11.359s-1.713-1.475-1.823-2.766S7295.291,7050.558,7295.291,7050.558Z" transform="translate(-7195.698 -6566)" fill="#b6de9c" stroke="#383838" stroke-width="1"/>
    <path id="Path_120" data-name="Path 120" d="M7293.014,7055.725h16.017a5.34,5.34,0,0,1,1.317,2.8,3.933,3.933,0,0,1-1.317,2.466H7293.4a5.006,5.006,0,0,1-1.057-2.466A6.246,6.246,0,0,1,7293.014,7055.725Z" transform="translate(-7195.799 -6566)" fill="none" stroke="#383838" stroke-width="1"/>
    <path id="Path_121" data-name="Path 121" d="M7295.431,7060.989a2.829,2.829,0,0,0-1.063,2.05,5.542,5.542,0,0,0,1.337,2.561l13.1.248a3.961,3.961,0,0,0,.827-2.5,4.774,4.774,0,0,0-1.508-2.358" transform="translate(-7196.853 -6566)" fill="#b6de9c" stroke="#383838" stroke-width="1"/>
    <path id="Path_122" data-name="Path 122" d="M7296.849,7069.723h9.481a3.5,3.5,0,0,0,.9-1.933,3.312,3.312,0,0,0-.9-1.89l-9.1-.182a4.274,4.274,0,0,0-1.2,2.072A2.87,2.87,0,0,0,7296.849,7069.723Z" transform="translate(-7197.05 -6566)" fill="#b6de9c" stroke="#383838" stroke-width="1"/>
    <path id="Path_123" data-name="Path 123" d="M7293.014,7055.725h16.017a5.34,5.34,0,0,1,1.317,2.8,3.933,3.933,0,0,1-1.317,2.466H7293.4a5.006,5.006,0,0,1-1.057-2.466A6.246,6.246,0,0,1,7293.014,7055.725Z" transform="translate(-7195.799 -6566)" fill="#b6de9c" stroke="#383838" stroke-width="1"/>
    <g id="Rectangle_32" data-name="Rectangle 32" transform="translate(71 481)" fill="#b6de9c" stroke="#383838" stroke-width="1">
      <rect width="16" height="25" rx="3" stroke="none"/>
      <rect x="0.5" y="0.5" width="15" height="24" rx="2.5" fill="none"/>
    </g>
  </g>
</svg>
